<svg id="Слой_1" data-name="Слой 1" xmlns="http://www.w3.org/2000/svg" xmlns:xlink="http://www.w3.org/1999/xlink" viewBox="0 0 1221.56 146.52"><defs><style>.cls-1{fill:none;}.cls-2{clip-path:url(#clip-path);}.cls-3{clip-path:url(#clip-path-2);}.cls-4{fill:#f3b5be;}.cls-5{fill:#ed6a1d;}.cls-6{fill:#010101;}</style><clipPath id="clip-path" transform="translate(-51.01 -42.95)"><rect class="cls-1" x="51.01" y="42.95" width="1221.55" height="146.52"/></clipPath><clipPath id="clip-path-2" transform="translate(-51.01 -42.95)"><rect class="cls-1" x="51.01" y="42.95" width="1221.56" height="146.52"/></clipPath></defs><g class="cls-2"><g class="cls-3"><path d="M303.11,109.49c-3.09,2.78-11.44,6.81-21.46,6.81-5.54,0-9.62-1.28-12.53-3.72-4.34-3.65-5.36-8.51-5.36-15.89V69.34H245.28V101c0,13.25,5.31,21.81,14.64,27.81,5.38,3.46,12.25,5.09,19.92,5.09,11.83,0,20.87-4.52,23.27-6.33v39.26H321.6V69.34H303.11Z" transform="translate(-51.01 -42.95)"/><path d="M886.52,135.23c-2,9.14-5.12,12.28-8.88,14a22,22,0,0,1-8.41,1.6s.1,7.69.28,17c8,.1,15.55-1.36,20.76-4.91C896,159,901,153.05,903.73,140.69s4.07-28.11,5.16-54h28.76V167H956.2V69.34H891.42c-.62,24.25-1.56,50.86-4.9,65.89" transform="translate(-51.01 -42.95)"/><path d="M1051.36,167l0-59.27c.09-14.22-4-23.93-10.39-30.2-6.61-6.47-15.66-10.43-29.11-10.43-23.76,0-37.39,15-36.84,33.64l18.25-.11c.26-10.71,6.52-17,19.18-17s20.45,6.68,20.46,23.13c0,0-18.41-.32-31.76,2.92-19.67,4.77-30.37,14.82-30.37,31.2,0,16.6,12.1,28.36,31.39,28.36,14.31,0,24.13-5.4,31.74-13.64a106.2,106.2,0,0,0,1.78,11.39l15.72,0m-18.6-45.6v4.9c0,17.43-15.89,26.65-27,26.65-10.12,0-15.61-5.14-15.61-12.77,0-6.8,5.25-13.29,18.71-16.59,8.33-2,17.22-2.19,23.94-2.19" transform="translate(-51.01 -42.95)"/><rect x="551.46" y="26.39" width="18.83" height="97.49"/><polygon points="458.85 26.4 381.21 26.4 381.21 43.72 410.62 43.72 410.62 123.87 410.79 123.87 429.27 123.87 429.45 123.87 429.45 43.72 458.85 43.72 458.85 26.4"/><polygon points="1019.44 123.93 1037.92 123.93 1037.92 43.65 1080.33 43.65 1080.33 123.93 1098.81 123.93 1098.81 26.39 1019.44 26.39 1019.44 123.93"/><path d="M560.93,101H539.34V69.34H520.85v97.49h8.22v0h31.86c18.1,0,32-15.24,32-33.19,0-17.74-14.17-32.67-32-32.67m-2.46,48.32H539.34v-31h19.13a15.5,15.5,0,0,1,0,31" transform="translate(-51.01 -42.95)"/><rect x="1202.73" y="26.39" width="18.83" height="97.49"/><path d="M1212.2,101h-21.6V69.34h-18.48v97.49h8.21v0h31.87c18.09,0,32-15.24,32-33.19,0-17.74-14.17-32.67-32-32.67m-2.47,48.32H1190.6v-31h19.13a15.5,15.5,0,0,1,0,31" transform="translate(-51.01 -42.95)"/><path d="M682,69.34H651.26v0H643v97.49h18.48V142.46H682a36.76,36.76,0,0,0,37.07-36.66c0-20.44-16.63-36.46-37.07-36.46M681.26,125H661.52V86.74h19.53a19.08,19.08,0,0,1,19,19c0,10.35-8.32,19.27-18.75,19.27" transform="translate(-51.01 -42.95)"/><path d="M774.82,67.58a46.56,46.56,0,0,0-33.56,13.07c-9.28,9.16-15,21.5-15,37.48,0,29.62,20.87,50.56,49.31,50.56a49.09,49.09,0,0,0,39.39-19.8l-14.58-10.74c-5.82,7.84-14.43,13-24.81,13-15.71,0-27.88-11.51-29.16-24.1h76.86c.14-2.6.35-4.93.35-7.82,0-13.68-4.07-27.14-13-36.85-9.32-10.07-22.24-14.76-35.73-14.84m-28.77,42.08c.42-6.64,9.4-24.42,28.65-24.42a28.76,28.76,0,0,1,29.11,24.42Z" transform="translate(-51.01 -42.95)"/><path d="M384.78,67.58a46.58,46.58,0,0,0-33.56,13.07c-9.28,9.16-15,21.5-15,37.48,0,29.62,20.87,50.56,49.3,50.56a49.11,49.11,0,0,0,39.4-19.8l-14.58-10.74c-5.83,7.84-14.43,13-24.82,13-15.7,0-27.88-11.51-29.15-24.1H433.2c.14-2.6.36-4.93.36-7.82,0-13.68-4.07-27.14-13.05-36.85-9.32-10.07-22.24-14.76-35.73-14.84M356,109.66c.42-6.64,9.39-24.42,28.64-24.42a28.77,28.77,0,0,1,29.12,24.42Z" transform="translate(-51.01 -42.95)"/><rect class="cls-4" x="73.26" width="73.26" height="146.52"/><rect class="cls-5" width="73.26" height="146.52"/><path class="cls-6" d="M147.57,125.65a.51.51,0,0,1,.51-.87c3.44,1.25,11.23,5.6,18.42,10.07a2.74,2.74,0,0,0,2.28.3,8.25,8.25,0,0,0,2.36-1.28,5.89,5.89,0,0,0,1.87-2.51,2.77,2.77,0,0,0-.52-2.81c-5.42-6.24-12.55-10.34-18.35-13.68a3,3,0,0,1,.3-5.62c1.47-.51,5-1,9.13-1.81,8.47-1.57,11.23-7.77,11.16-15.93a2.08,2.08,0,0,0-2.18-2c-4.24.08-8,.49-11.23.28-4.47-.29-6.46-1.47-8.87-6.82-1.85-4.14-3.73-7.2-5.2-8.39a1.54,1.54,0,0,0-2.45.71c-.47,1.72-.33,7.12-.33,7.12s-2.6-5-4.34-7.61a1.53,1.53,0,0,0-2.77.58c-.3,1.85-.36,5.7-.57,10.74a38.3,38.3,0,0,1-2,11.94,11.86,11.86,0,0,1-10,8.19,59.44,59.44,0,0,1-18.72-.6c-5.46-1.4-11.86-6.16-15-13a.93.93,0,0,0-1.73.16c-1.38,4.67.06,12,4,16.93-5.38,4-18.34,13.2-23.1,23.56a2.54,2.54,0,0,0,.12,2.35,7.06,7.06,0,0,0,4.62,3.48,2.46,2.46,0,0,0,2.13-.55c6-5,14.66-12.08,19-13.62a.51.51,0,0,1,.5.88c-3,2.29-12,8.23-18.78,20.39a2.6,2.6,0,0,0-.09,2.35,6.36,6.36,0,0,0,2,2.35,10.67,10.67,0,0,0,2,1.23,2.67,2.67,0,0,0,2.93-.51c6.4-6.16,10.67-10.39,19.95-14.64,6.93-2.92,19.08-4.59,30.24-1.69,9.27,2.4,15.92,6.26,25.84,13.73a2.66,2.66,0,0,0,2.36.44,6.73,6.73,0,0,0,2.83-1.5,8.12,8.12,0,0,0,1.48-2,2.64,2.64,0,0,0-.16-2.77c-5.39-7.82-14.47-14.34-19.65-17.68" transform="translate(-51.01 -42.95)"/></g></g></svg>